<?xml version="1.0" encoding="UTF-8" standalone="no"?>
<!-- Created with Inkscape (http://www.inkscape.org/) -->

<svg
   xmlns:dc="http://purl.org/dc/elements/1.1/"
   xmlns:cc="http://creativecommons.org/ns#"
   xmlns:rdf="http://www.w3.org/1999/02/22-rdf-syntax-ns#"
   xmlns:svg="http://www.w3.org/2000/svg"
   xmlns="http://www.w3.org/2000/svg"
   xmlns:sodipodi="http://sodipodi.sourceforge.net/DTD/sodipodi-0.dtd"
   xmlns:inkscape="http://www.inkscape.org/namespaces/inkscape"
   width="40.448177mm"
   height="19.757359mm"
   viewBox="0 0 143.32031 70.006388"
   id="svg2"
   version="1.1"
   inkscape:version="0.91 r13725"
   sodipodi:docname="polyvox.svg">
  <defs
     id="defs4" />
  <sodipodi:namedview
     id="base"
     pagecolor="#ffffff"
     bordercolor="#666666"
     borderopacity="1.0"
     inkscape:pageopacity="0.0"
     inkscape:pageshadow="2"
     inkscape:zoom="6.1720908"
     inkscape:cx="99.549709"
     inkscape:cy="50.343848"
     inkscape:document-units="px"
     inkscape:current-layer="svg2"
     showgrid="false"
     fit-margin-top="0"
     fit-margin-left="0"
     fit-margin-right="0"
     fit-margin-bottom="0"
     inkscape:window-width="2560"
     inkscape:window-height="1391"
     inkscape:window-x="0"
     inkscape:window-y="0"
     inkscape:window-maximized="1" />
  <metadata
     id="metadata7">
    <rdf:RDF>
      <cc:Work
         rdf:about="">
        <dc:format>image/svg+xml</dc:format>
        <dc:type
           rdf:resource="http://purl.org/dc/dcmitype/StillImage" />
        <dc:title></dc:title>
      </cc:Work>
    </rdf:RDF>
  </metadata>
  <text
     xml:space="preserve"
     style="font-style:normal;font-variant:normal;font-weight:normal;font-stretch:normal;font-size:40px;line-height:125%;font-family:Righteous;-inkscape-font-specification:'Righteous, Normal';text-align:left;letter-spacing:0px;word-spacing:0px;writing-mode:lr-tb;text-anchor:middle;fill:#FFFFFF;fill-opacity:1;stroke:none;stroke-width:1px;stroke-linecap:butt;stroke-linejoin:miter;stroke-opacity:1"
     x="70.585938"
     y="61.998577"
     id="polyvox-text"
     sodipodi:linespacing="125%"><tspan
       sodipodi:role="line"
       id="tspan4138"
       x="70.585938"
       y="61.998577">p<tspan
   style="fill:none"
   id="tspan4221">o</tspan>lyv<tspan
   style="fill:none"
   id="tspan4223">o</tspan>x</tspan></text>
  <path
     style="opacity:1;fill:#FFFFFF;fill-opacity:1;stroke:#FFFFFF;stroke-width:0.99999994;stroke-linecap:round;stroke-miterlimit:1;stroke-dasharray:none;stroke-dashoffset:0;stroke-opacity:1"
     d="m 29.363046,49.09975 c -0.0978,-3.056449 0.10763,-6.192253 0.642481,-9.368628 4.02959,-23.931342 25.23374,-41.1041265 47.36079,-38.3564817 17.96542,2.2308768 31.015623,16.9077227 33.132273,35.1584287 l 3.49234,-0.585604 C 111.87427,17.696759 98.824067,3.0199128 80.858647,0.78903609 58.731597,-1.9586088 37.527447,15.214176 33.497857,39.145517 c -0.53484,3.176385 -0.74028,6.312179 -0.64248,9.368629 z"
     id="head-band"
     inkscape:connector-curvature="0"
     sodipodi:nodetypes="cssccsscc" />
  <path
     inkscape:connector-curvature="0"
     id="headset-connector"
     style="font-style:normal;font-variant:normal;font-weight:normal;font-stretch:normal;font-size:40px;line-height:125%;font-family:Righteous;-inkscape-font-specification:'Righteous, Normal';text-align:center;letter-spacing:0px;word-spacing:0px;writing-mode:lr-tb;text-anchor:middle;fill:#FFFFFF;fill-opacity:1;stroke:none;stroke-width:1px;stroke-linecap:butt;stroke-linejoin:miter;stroke-opacity:1"
     d="m 30.931973,43.958663 c -0.555939,0 -1.0799,0.136834 -1.57188,0.410792 -0.487063,0.273946 -0.915094,0.653185 -1.284075,1.137381 -0.364073,0.477817 -0.651878,1.047738 -0.863426,1.71032 -0.211547,0.662581 -0.31733,1.382559 -0.31733,2.159819 0,0.764522 0.105783,1.47849 0.31733,2.141072 0.211548,0.656213 0.499353,1.226123 0.863426,1.710319 0.368981,0.477817 0.797012,0.857067 1.284075,1.137382 0.49198,0.273946 1.015941,0.410792 1.57188,0.410792 0.560857,0 1.084818,-0.136846 1.57188,-0.410792 0.491981,-0.280315 0.920012,-0.659565 1.284075,-1.137382 0.364073,-0.484196 0.651878,-1.054106 0.863426,-1.710319 0.211556,-0.662582 0.31733,-1.37655 0.31733,-2.141072 0,-0.815482 -0.105774,-1.554114 -0.31733,-2.216696 -0.211548,-0.66895 -0.499353,-1.239461 -0.863426,-1.71092 -0.364063,-0.477817 -0.792094,-0.843822 -1.284075,-1.098663 -0.487062,-0.261209 -1.011023,-0.392033 -1.57188,-0.392033 z"
     sodipodi:nodetypes="sccsscccscccscccs" />
  <g
     style="font-style:normal;font-variant:normal;font-weight:normal;font-stretch:normal;font-size:40px;line-height:125%;font-family:Righteous;-inkscape-font-specification:'Righteous, Normal';text-align:center;letter-spacing:0px;word-spacing:0px;writing-mode:lr-tb;text-anchor:middle;fill:#FFFFFF;fill-opacity:1;stroke:none;stroke-width:1px;stroke-linecap:butt;stroke-linejoin:miter;stroke-opacity:1"
     id="left-headphone"
     transform="matrix(0.98219086,0.18788592,-0.29678449,1.5514681,15.659437,-891.43423)">
    <path
       d="m 225.03516,575.08984 c -1.47135,0 -2.85807,0.44177 -4.16016,1.32618 -1.28906,0.88441 -2.42188,2.10873 -3.39844,3.67187 -0.96355,1.54257 -1.72526,3.38244 -2.28515,5.52149 -0.55989,2.13904 -0.83985,4.46338 -0.83985,6.97265 0,2.46813 0.27996,4.77306 0.83985,6.91211 0.55989,2.11848 1.3216,3.95835 2.28515,5.52148 0.97656,1.54258 2.10938,2.7669 3.39844,3.67188 1.30209,0.8844 2.68881,1.32617 4.16016,1.32617 1.48437,0 2.87108,-0.44177 4.16015,-1.32617 1.30208,-0.90498 2.4349,-2.1293 3.39844,-3.67188 0.96355,-1.56313 1.72527,-3.403 2.28516,-5.52148 0.55989,-2.13905 0.83984,-4.44398 0.83984,-6.91211 0,-2.63267 -0.27995,-5.0172 -0.83984,-7.15625 -0.55989,-2.15961 -1.32161,-4.00141 -2.28516,-5.52344 -0.96354,-1.54257 -2.09636,-2.72417 -3.39844,-3.54687 -1.28907,-0.84327 -2.67578,-1.26563 -4.16015,-1.26563 z m -0.78907,4.63672 c 1.0735,0 2.07556,0.30421 3.00782,0.91406 0.94167,0.59499 1.76214,1.45082 2.45898,2.56641 0.69684,1.10073 1.24742,2.43231 1.65234,3.99414 0.40491,1.54697 0.60743,3.27184 0.60743,5.17578 0,1.78495 -0.20252,3.45109 -0.60743,4.99805 -0.40492,1.53209 -0.9555,2.86368 -1.65234,3.99414 -0.69684,1.11559 -1.51731,1.99981 -2.45898,2.6543 -0.93226,0.63959 -1.93432,0.95898 -3.00782,0.95898 -1.06408,0 -2.06809,-0.31939 -3.00976,-0.95898 -0.93225,-0.65449 -1.75078,-1.53871 -2.45703,-2.6543 -0.69684,-1.13046 -1.24743,-2.46205 -1.65235,-3.99414 -0.40491,-1.54696 -0.60742,-3.2131 -0.60742,-4.99805 0,-1.8147 0.20251,-3.496 0.60742,-5.04297 0.40492,-1.54694 0.95551,-2.87854 1.65235,-3.99414 0.70625,-1.13047 1.52478,-2.01468 2.45703,-2.65429 0.94167,-0.6396 1.94568,-0.95899 3.00976,-0.95899 z"
       transform="matrix(1,0,0,0.6330719,-30.754985,208.65079)"
       id="path4195"
       inkscape:connector-curvature="0" />
  </g>
  <g
     transform="matrix(0.98219086,0.18788592,-0.29678449,1.5514681,92.456752,-891.43423)"
     id="right-headphone"
     style="font-style:normal;font-variant:normal;font-weight:normal;font-stretch:normal;font-size:40px;line-height:125%;font-family:Righteous;-inkscape-font-specification:'Righteous, Normal';text-align:center;letter-spacing:0px;word-spacing:0px;writing-mode:lr-tb;text-anchor:middle;fill:#FFFFFF;fill-opacity:1;stroke:none;stroke-width:1px;stroke-linecap:butt;stroke-linejoin:miter;stroke-opacity:1">
    <path
       inkscape:connector-curvature="0"
       id="path4227"
       transform="matrix(1,0,0,0.6330719,-30.754985,208.65079)"
       d="m 225.03516,575.08984 c -1.47135,0 -2.85807,0.44177 -4.16016,1.32618 -1.28906,0.88441 -2.42188,2.10873 -3.39844,3.67187 -0.96355,1.54257 -1.72526,3.38244 -2.28515,5.52149 -0.55989,2.13904 -0.83985,4.46338 -0.83985,6.97265 0,2.46813 0.27996,4.77306 0.83985,6.91211 0.55989,2.11848 1.3216,3.95835 2.28515,5.52148 0.97656,1.54258 2.10938,2.7669 3.39844,3.67188 1.30209,0.8844 2.68881,1.32617 4.16016,1.32617 1.48437,0 2.87108,-0.44177 4.16015,-1.32617 1.30208,-0.90498 2.4349,-2.1293 3.39844,-3.67188 0.96355,-1.56313 1.72527,-3.403 2.28516,-5.52148 0.55989,-2.13905 0.83984,-4.44398 0.83984,-6.91211 0,-2.63267 -0.27995,-5.0172 -0.83984,-7.15625 -0.55989,-2.15961 -1.32161,-4.00141 -2.28516,-5.52344 -0.96354,-1.54257 -2.09636,-2.72417 -3.39844,-3.54687 -1.28907,-0.84327 -2.67578,-1.26563 -4.16015,-1.26563 z m -0.78907,4.63672 c 1.0735,0 2.07556,0.30421 3.00782,0.91406 0.94167,0.59499 1.76214,1.45082 2.45898,2.56641 0.69684,1.10073 1.24742,2.43231 1.65234,3.99414 0.40491,1.54697 0.60743,3.27184 0.60743,5.17578 0,1.78495 -0.20252,3.45109 -0.60743,4.99805 -0.40492,1.53209 -0.9555,2.86368 -1.65234,3.99414 -0.69684,1.11559 -1.51731,1.99981 -2.45898,2.6543 -0.93226,0.63959 -1.93432,0.95898 -3.00782,0.95898 -1.06408,0 -2.06809,-0.31939 -3.00976,-0.95898 -0.93225,-0.65449 -1.75078,-1.53871 -2.45703,-2.6543 -0.69684,-1.13046 -1.24743,-2.46205 -1.65235,-3.99414 -0.40491,-1.54696 -0.60742,-3.2131 -0.60742,-4.99805 0,-1.8147 0.20251,-3.496 0.60742,-5.04297 0.40492,-1.54694 0.95551,-2.87854 1.65235,-3.99414 0.70625,-1.13047 1.52478,-2.01468 2.45703,-2.65429 0.94167,-0.6396 1.94568,-0.95899 3.00976,-0.95899 z" />
  </g>
</svg>
